<svg width="21" height="20" viewBox="0 0 21 20" fill="none" xmlns="http://www.w3.org/2000/svg">
<path fill-rule="evenodd" clip-rule="evenodd" d="M5.5435 16.9518C6.2575 16.9518 6.8385 17.5318 6.8385 18.2458C6.8385 18.9598 6.2575 19.5408 5.5435 19.5408C4.8295 19.5408 4.2495 18.9598 4.2495 18.2458C4.2495 17.5318 4.8295 16.9518 5.5435 16.9518ZM16.8238 16.9518C17.5388 16.9518 18.1198 17.5318 18.1198 18.2458C18.1198 18.9598 17.5388 19.5408 16.8238 19.5408C16.1098 19.5408 15.5298 18.9598 15.5298 18.2458C15.5298 17.5318 16.1098 16.9518 16.8238 16.9518ZM1.2677 0.00942601L3.3477 0.369426C3.6827 0.428426 3.9377 0.706426 3.9667 1.04643L4.2017 3.84743L5.07555 3.8478C5.21815 3.84787 5.35923 3.84793 5.49882 3.84799L7.10313 3.84875C7.23101 3.84882 7.35746 3.84888 7.48249 3.84895L9.25388 3.84992C9.36517 3.84998 9.47512 3.85005 9.58375 3.85011L10.8251 3.85091C10.9234 3.85097 11.0205 3.85104 11.1164 3.85111L12.2082 3.85191C12.2944 3.85198 12.3794 3.85205 12.4633 3.85211L13.4152 3.85293C13.4901 3.853 13.5639 3.85307 13.6366 3.85314L14.2623 3.85376C14.3286 3.85383 14.394 3.8539 14.4583 3.85397L15.1829 3.85481C15.2394 3.85488 15.295 3.85495 15.3496 3.85502L15.9614 3.85588C16.0088 3.85595 16.0554 3.85602 16.1011 3.85609L16.4899 3.85674C16.5306 3.85681 16.5706 3.85688 16.6097 3.85696L17.0428 3.85784C17.0759 3.85791 17.1083 3.85798 17.14 3.85806L17.4066 3.85872C17.4342 3.8588 17.4611 3.85887 17.4874 3.85895L17.7732 3.85985C17.7946 3.85992 17.8154 3.86 17.8357 3.86007L18.0035 3.86076C18.0205 3.86084 18.0371 3.86091 18.0531 3.86099L18.2228 3.86191C18.2352 3.86199 18.2471 3.86207 18.2586 3.86215L18.3511 3.86285C18.3602 3.86293 18.3689 3.863 18.3773 3.86308L18.4439 3.86379C18.4504 3.86387 18.4565 3.86395 18.4624 3.86403L18.5077 3.86475C18.5119 3.86483 18.516 3.86491 18.5198 3.86499L18.5484 3.86572C18.5511 3.8658 18.5535 3.86588 18.5558 3.86596L18.5766 3.86694C18.5778 3.86702 18.579 3.8671 18.5801 3.86718C18.5898 3.86809 18.5913 3.86826 18.5927 3.86843C19.1497 3.94943 19.6397 4.24043 19.9737 4.68843C20.3077 5.13543 20.4477 5.68643 20.3677 6.23843L19.4187 12.7964C19.2397 14.0444 18.1557 14.9854 16.8957 14.9854H5.9747C4.6577 14.9854 3.5427 13.9574 3.4357 12.6424L2.5197 1.74843L1.0127 1.48843C0.6037 1.41643 0.3307 1.02943 0.4007 0.620426C0.4727 0.211426 0.8677 -0.054574 1.2677 0.00942601ZM4.87493 5.34777L4.3277 5.34743L4.9307 12.5194C4.9747 13.0714 5.4257 13.4854 5.9767 13.4854H16.8937C17.4147 13.4854 17.8597 13.0974 17.9337 12.5824L18.8837 6.02343C18.9057 5.86743 18.8667 5.71143 18.7717 5.58543C18.6777 5.45843 18.5397 5.37643 18.3837 5.35443C18.3765 5.3547 18.3592 5.35495 18.3324 5.35518L18.2236 5.35581C18.2009 5.3559 18.1758 5.35599 18.1486 5.35607L17.5821 5.35693C17.5343 5.35696 17.4846 5.35699 17.4331 5.35702L16.1011 5.35696C16.0268 5.35693 15.951 5.3569 15.874 5.35687L14.3539 5.35595C14.2628 5.35588 14.1707 5.35581 14.0777 5.35574L13.2176 5.35505C13.1196 5.35497 13.0209 5.35489 12.9215 5.3548L12.0104 5.354C11.9075 5.35391 11.8042 5.35381 11.7003 5.35372L11.0728 5.35314C10.9675 5.35304 10.8619 5.35295 10.756 5.35285L9.7983 5.35195C9.69151 5.35185 9.58466 5.35175 9.47781 5.35165L8.83717 5.35106C8.73055 5.35096 8.62405 5.35086 8.51774 5.35076L7.88254 5.35019C7.77719 5.35009 7.67216 5.35 7.56749 5.34991L6.63698 5.34911C6.53505 5.34902 6.43368 5.34894 6.33291 5.34885L5.15699 5.34796C5.06209 5.34789 4.96805 5.34783 4.87493 5.34777ZM15.2876 7.54373C15.7016 7.54373 16.0376 7.87973 16.0376 8.29373C16.0376 8.70773 15.7016 9.04373 15.2876 9.04373H12.5156C12.1006 9.04373 11.7656 8.70773 11.7656 8.29373C11.7656 7.87973 12.1006 7.54373 12.5156 7.54373H15.2876Z" fill="#7960FB"/>
</svg>
