<svg width="24" height="24" viewBox="0 0 24 24" fill="none" xmlns="http://www.w3.org/2000/svg">
<path d="M11.3498 9.14307H15.3537" stroke="black" stroke-width="1.5" stroke-miterlimit="10" stroke-linecap="round" stroke-linejoin="round"/>
<path d="M8.43788 9.14307H8.71088" stroke="black" stroke-width="1.5" stroke-miterlimit="10" stroke-linecap="round" stroke-linejoin="round"/>
<path d="M11.3498 14.0571H15.3537" stroke="black" stroke-width="1.5" stroke-miterlimit="10" stroke-linecap="round" stroke-linejoin="round"/>
<path d="M8.43787 14.0571H8.71086" stroke="black" stroke-width="1.5" stroke-miterlimit="10" stroke-linecap="round" stroke-linejoin="round"/>
<path d="M17.4467 19.6079L16.7187 19.244C16.2637 19.062 15.8087 19.062 15.3537 19.244L13.1698 20.0629C12.3508 20.4269 11.4408 20.4269 10.5308 20.0629L8.43787 19.244C7.98288 19.062 7.43689 19.062 7.0729 19.244L6.34491 19.6079C5.61692 19.9719 4.70694 19.4259 4.70694 18.516V6.68619C4.70694 4.32023 5.98092 2.86426 8.34687 2.86426H15.3537C17.7197 2.86426 18.9937 4.32023 18.9937 6.68619V18.516C19.0847 19.335 18.1747 19.9719 17.4467 19.6079Z" stroke="black" stroke-width="1.5" stroke-miterlimit="10" stroke-linecap="round" stroke-linejoin="round"/>
</svg>
