<svg width="24" height="24" viewBox="0 0 24 24" fill="none" xmlns="http://www.w3.org/2000/svg">
<path d="M11.9973 19.9948C16.4142 19.9948 19.9947 16.4142 19.9947 11.9974C19.9947 7.58056 16.4142 4 11.9973 4C7.58049 4 3.99994 7.58056 3.99994 11.9974C3.99994 16.4142 7.58049 19.9948 11.9973 19.9948Z" stroke="black" stroke-width="1.5" stroke-miterlimit="10" stroke-linecap="round" stroke-linejoin="round"/>
<path d="M11.9962 17.0869C12.3977 17.0869 12.7232 16.7614 12.7232 16.3598C12.7232 15.9583 12.3977 15.6328 11.9962 15.6328C11.5947 15.6328 11.2692 15.9583 11.2692 16.3598C11.2692 16.7614 11.5947 17.0869 11.9962 17.0869Z" fill="black"/>
<path d="M10.4928 8.51085C11.4928 6.9977 13.7364 7.48123 14.3726 8.51071C15.0087 9.5402 14.5696 10.7376 13.479 11.6617C12.3885 12.5857 11.9952 13.0874 11.9952 13.8144" stroke="black" stroke-width="1.5" stroke-miterlimit="10" stroke-linecap="round" stroke-linejoin="round"/>
</svg>
