<svg width="94" height="44" viewBox="0 0 94 44" fill="none" xmlns="http://www.w3.org/2000/svg">
<g clip-path="url(#clip0_4_4662)">
<path d="M39.3749 15.3464V20.7729H48.0832V27.5402H39.3749V33.4334H56.088V40.434H34.5573C33.4351 40.434 32.4687 40.0353 31.655 39.2379C30.8428 38.4405 30.4359 37.4586 30.4359 36.2921V8.3443H55.5064V15.3449H39.3734L39.3749 15.3464Z" fill="#3C3C3B"/>
<path d="M16.2578 4.76056C21.0754 4.76056 24.903 5.93889 27.7422 8.29556C30.5813 10.6522 32.0002 13.8624 32.0002 17.9275C32.0002 21.9926 30.5813 25.2027 27.7422 27.5594C24.903 29.9161 21.0754 31.0944 16.2578 31.0944H10.064V36.8015C10.064 37.7967 9.70859 38.6502 8.99917 39.3634C8.28975 40.0766 7.41877 40.434 6.38623 40.434H0V4.76056H16.2578ZM10.064 12.6737V23.1163H15.6131C17.6782 23.1163 19.2365 22.6733 20.2911 21.7873C21.3442 20.9014 21.8715 19.6152 21.8715 17.9275C21.8715 16.2397 21.3442 14.9433 20.2911 14.0351C19.238 13.127 17.6782 12.6737 15.6131 12.6737H10.064Z" fill="#3C3C3B"/>
<path d="M83.795 40.3055C81.9002 40.3055 80.4418 39.5244 79.421 37.9607L72.6411 27.7735L72.6264 27.7957L69.7138 23.4958C68.0233 20.7552 68.013 19.6153 69.7256 16.8555L79.6398 1.75864C80.4653 0.586214 81.5595 0 82.9196 0H93.1246L79.1287 19.4204L94 40.307H83.795V40.3055Z" fill="#3C3C3B"/>
<path d="M60.0787 44C61.9235 44 63.3423 43.2395 64.3352 41.7171L70.9329 31.8047L70.9461 31.8253L73.7809 27.6406C75.4259 24.9739 75.4362 23.8649 73.7706 21.1775L64.1237 6.48672C63.3203 5.3453 62.2554 4.77533 60.932 4.77533H51.0002L64.6201 23.6744L50.1483 44H60.0802H60.0787Z" fill="#F09200"/>
</g>
<defs>
<clipPath id="clip0_4_4662">
<rect width="94" height="44" fill="white"/>
</clipPath>
</defs>
</svg>
