<svg width="126" height="122" viewBox="0 0 126 122" fill="none" xmlns="http://www.w3.org/2000/svg">
<rect width="120" height="120" rx="60" fill="#F9F9F9"/>
<path d="M48.9001 73.903C48.9001 70.1863 51.8326 65.5584 60.2835 65.5584C68.7344 65.5584 71.6668 70.1531 71.6668 73.8713" stroke="#CCCCCC" stroke-width="2.5" stroke-linecap="round" stroke-linejoin="round"/>
<path d="M60.2834 60.2446C64.2993 60.2446 67.5548 56.9891 67.5548 52.9732C67.5548 48.9574 64.2993 45.7019 60.2834 45.7019C56.2676 45.7019 53.0121 48.9574 53.0121 52.9732C53.0121 56.9891 56.2676 60.2446 60.2834 60.2446Z" stroke="#CCCCCC" stroke-width="2.5" stroke-linecap="round" stroke-linejoin="round"/>
<path d="M103 120C114.598 120 124 110.598 124 99C124 87.402 114.598 78 103 78C91.402 78 82 87.402 82 99C82 110.598 91.402 120 103 120Z" fill="#F09200" stroke="white" stroke-width="4"/>
<path fill-rule="evenodd" clip-rule="evenodd" d="M107.832 93.8768C107.868 93.939 107.93 93.9834 108.01 93.9834C110.144 93.9834 111.886 95.7236 111.886 97.8546V103.129C111.886 105.26 110.144 107 108.01 107H97.9836C95.8414 107 94.108 105.26 94.108 103.129V97.8546C94.108 95.7236 95.8414 93.9834 97.9836 93.9834C98.0547 93.9834 98.1258 93.9478 98.1525 93.8768L98.2058 93.7703C98.2365 93.7057 98.2679 93.6395 98.2999 93.5722C98.5272 93.0933 98.7788 92.5634 98.9347 92.2519C99.3436 91.4528 100.037 91.0089 100.899 91H105.086C105.948 91.0089 106.65 91.4528 107.059 92.2519C107.199 92.5316 107.412 92.9821 107.618 93.4163C107.66 93.5059 107.703 93.5949 107.744 93.6815L107.832 93.8768ZM107.184 97.2872C107.184 97.7311 107.54 98.0863 107.984 98.0863C108.429 98.0863 108.793 97.7311 108.793 97.2872C108.793 96.8432 108.429 96.4792 107.984 96.4792C107.54 96.4792 107.184 96.8432 107.184 97.2872ZM101.46 98.6619C101.877 98.2445 102.42 98.0226 102.997 98.0226C103.575 98.0226 104.117 98.2445 104.526 98.653C104.935 99.0614 105.157 99.603 105.157 100.18C105.149 101.37 104.189 102.338 102.997 102.338C102.42 102.338 101.877 102.116 101.469 101.707C101.06 101.299 100.837 100.757 100.837 100.18V100.171C100.829 99.6119 101.051 99.0703 101.46 98.6619ZM105.46 102.649C104.828 103.279 103.957 103.67 102.997 103.67C102.064 103.67 101.193 103.306 100.526 102.649C99.8685 101.983 99.504 101.113 99.504 100.18C99.4951 99.257 99.8596 98.3869 100.517 97.7209C101.184 97.055 102.064 96.691 102.997 96.691C103.931 96.691 104.811 97.055 105.468 97.7121C106.126 98.378 106.491 99.257 106.491 100.18C106.482 101.148 106.091 102.018 105.46 102.649Z" fill="white"/>
</svg>
