<svg width="278" height="47" viewBox="0 0 278 47" fill="none" xmlns="http://www.w3.org/2000/svg">
<path d="M0.604805 11H1.8648V8.22H3.4048L4.9748 11H6.41481L4.6948 8C5.54481 7.66 6.0748 6.92 6.0748 5.89C6.0748 4.41 5.0048 3.55 3.4748 3.55H0.604805V11ZM1.8648 7.12V4.66H3.4748C4.2648 4.66 4.7948 5.15 4.7948 5.89C4.7948 6.63 4.2648 7.12 3.4748 7.12H1.8648ZM11.9787 8.11C11.9787 6.68 10.8987 5.49 9.37871 5.49C7.85871 5.49 6.70871 6.68 6.70871 8.3C6.70871 9.88 7.83871 11.12 9.46871 11.12C10.5687 11.12 11.4487 10.56 11.7787 9.79L10.7887 9.31C10.5487 9.75 10.1187 10.06 9.47871 10.06C8.64871 10.06 8.01871 9.51 7.95871 8.65H11.9187C11.9587 8.49 11.9787 8.3 11.9787 8.11ZM7.97871 7.72C8.11871 6.93 8.67871 6.49 9.37871 6.49C10.0687 6.49 10.6487 7 10.6887 7.72H7.97871ZM14.9211 5.49C13.8511 5.49 12.9511 6.06 12.6411 6.88L13.6811 7.4C13.8811 6.89 14.3411 6.57 14.9211 6.57C15.5211 6.57 15.9311 6.9 15.9311 7.4V7.57L14.1611 7.95C13.0711 8.19 12.4411 8.72 12.4411 9.52C12.4411 10.44 13.2011 11.12 14.4011 11.12C15.0511 11.12 15.6011 10.88 16.0011 10.4V11H17.1311V7.4C17.1311 6.28 16.2311 5.49 14.9211 5.49ZM14.5411 10.17C14.0211 10.17 13.6911 9.92 13.6911 9.51C13.6911 9.18 13.9511 8.92 14.4011 8.82L15.9311 8.48V8.83C15.9311 9.59 15.3411 10.17 14.5411 10.17ZM18.0927 11H19.2927V3.55H18.0927V11ZM20.4062 4.9H21.6062V3.55H20.4062V4.9ZM20.4062 11H21.6062V5.61H20.4062V11ZM22.3016 11H26.7216V9.92H23.9216L26.7116 6.59V5.61H22.4316V6.69H25.1316L22.3016 10.02V11ZM29.6379 5.49C28.5679 5.49 27.6679 6.06 27.3579 6.88L28.3979 7.4C28.5979 6.89 29.0579 6.57 29.6379 6.57C30.2379 6.57 30.6479 6.9 30.6479 7.4V7.57L28.8779 7.95C27.7879 8.19 27.1579 8.72 27.1579 9.52C27.1579 10.44 27.9179 11.12 29.1179 11.12C29.7679 11.12 30.3179 10.88 30.7179 10.4V11H31.8479V7.4C31.8479 6.28 30.9479 5.49 29.6379 5.49ZM29.2579 10.17C28.7379 10.17 28.4079 9.92 28.4079 9.51C28.4079 9.18 28.6679 8.92 29.1179 8.82L30.6479 8.48V8.83C30.6479 9.59 30.0579 10.17 29.2579 10.17ZM36.9495 3.55V6.21C36.5695 5.75 35.9495 5.49 35.2295 5.49C33.7095 5.49 32.5095 6.71 32.5095 8.31C32.5095 9.9 33.6895 11.12 35.2395 11.12C35.9595 11.12 36.6095 10.85 37.0095 10.37V11H38.1495V3.55H36.9495ZM35.3595 10.01C34.4295 10.01 33.7595 9.3 33.7595 8.31C33.7595 7.32 34.4295 6.6 35.3595 6.6C36.2795 6.6 36.9495 7.32 36.9495 8.31C36.9495 9.31 36.2795 10.01 35.3595 10.01ZM41.4836 5.49C40.4136 5.49 39.5136 6.06 39.2036 6.88L40.2436 7.4C40.4436 6.89 40.9036 6.57 41.4836 6.57C42.0836 6.57 42.4936 6.9 42.4936 7.4V7.57L40.7236 7.95C39.6336 8.19 39.0036 8.72 39.0036 9.52C39.0036 10.44 39.7636 11.12 40.9636 11.12C41.6136 11.12 42.1636 10.88 42.5636 10.4V11H43.6936V7.4C43.6936 6.28 42.7936 5.49 41.4836 5.49ZM41.1036 10.17C40.5836 10.17 40.2536 9.92 40.2536 9.51C40.2536 9.18 40.5136 8.92 40.9636 8.82L42.4936 8.48V8.83C42.4936 9.59 41.9036 10.17 41.1036 10.17Z" fill="#999999"/>
<path d="M56.3812 11H58.8112C61.1512 11 62.6612 9.47 62.6612 7.27C62.6612 5.07 61.1512 3.55 58.8112 3.55H56.3812V11ZM57.6412 9.89V4.66H58.8412C60.3812 4.66 61.3812 5.68 61.3812 7.27C61.3812 8.86 60.3912 9.89 58.8412 9.89H57.6412ZM63.6338 4.9H64.8338V3.55H63.6338V4.9ZM63.6338 11H64.8338V5.61H63.6338V11ZM67.9891 11.12C69.2191 11.12 70.0691 10.46 70.0691 9.49C70.0691 8.74 69.5691 8.2 68.6391 7.94L67.6791 7.67C67.3691 7.58 67.0291 7.41 67.0291 7.07C67.0291 6.73 67.3391 6.5 67.8391 6.5C68.4491 6.5 68.9291 6.81 69.1291 7.32L70.0691 6.88C69.7391 6.02 68.8991 5.49 67.8391 5.49C66.6491 5.49 65.8391 6.15 65.8391 7.12C65.8391 7.85 66.3091 8.4 67.2491 8.66L68.1691 8.9C68.4991 8.99 68.8791 9.15 68.8791 9.52C68.8791 9.89 68.5291 10.14 67.9891 10.14C67.3491 10.14 66.8191 9.8 66.5391 9.16L65.6091 9.61C65.9491 10.55 66.8691 11.12 67.9891 11.12ZM73.3205 11.06C73.5105 11.06 73.7505 11.04 73.9405 11.01V10.05C73.8105 10.07 73.6805 10.08 73.5805 10.08C72.8205 10.08 72.6305 9.65 72.6305 9.19V6.69H73.9105V5.61H72.6305V3.94H71.4305V4.8C71.4305 5.32 71.1305 5.61 70.6105 5.61H70.4505V6.69H71.4305V9.19C71.4305 10.38 72.1105 11.06 73.3205 11.06ZM77.377 5.55C76.717 5.55 76.197 5.77 75.917 6.36V5.61H74.787V11H75.987V7.95C75.987 7.11 76.487 6.63 77.227 6.63H77.877V5.55H77.377ZM78.5849 4.9H79.7849V3.55H78.5849V4.9ZM78.5849 11H79.7849V5.61H78.5849V11ZM83.8203 5.49C83.0903 5.49 82.4803 5.75 82.1003 6.2V3.55H80.9003V11H82.0303V10.36C82.4203 10.85 83.0703 11.12 83.8103 11.12C85.3503 11.12 86.5403 9.9 86.5403 8.31C86.5403 6.71 85.3403 5.49 83.8203 5.49ZM83.6903 10.01C82.7603 10.01 82.1003 9.31 82.1003 8.31C82.1003 7.32 82.7603 6.6 83.6903 6.6C84.6103 6.6 85.2903 7.32 85.2903 8.31C85.2903 9.3 84.6103 10.01 83.6903 10.01ZM90.7845 5.61V8.81C90.7845 9.54 90.3245 10.01 89.6445 10.01C88.9545 10.01 88.4945 9.54 88.4945 8.81V5.61H87.2945V8.96C87.2945 10.2 88.1345 11.12 89.3345 11.12C89.9945 11.12 90.5445 10.85 90.8445 10.38V11H91.9845V5.61H90.7845ZM93.1064 4.9H94.3064V3.55H93.1064V4.9ZM93.1064 11H94.3064V5.61H93.1064V11ZM98.0818 5.49C97.4118 5.49 96.8518 5.76 96.5518 6.26V5.61H95.4218V11H96.6218V7.8C96.6218 7.07 97.0818 6.6 97.7718 6.6C98.4518 6.6 98.9118 7.07 98.9118 7.8V11H100.112V7.5C100.112 6.32 99.2818 5.49 98.0818 5.49ZM105.314 3.55V6.21C104.934 5.75 104.314 5.49 103.594 5.49C102.074 5.49 100.874 6.71 100.874 8.31C100.874 9.9 102.054 11.12 103.604 11.12C104.324 11.12 104.974 10.85 105.374 10.37V11H106.514V3.55H105.314ZM103.724 10.01C102.794 10.01 102.124 9.3 102.124 8.31C102.124 7.32 102.794 6.6 103.724 6.6C104.644 6.6 105.314 7.32 105.314 8.31C105.314 9.31 104.644 10.01 103.724 10.01ZM110.198 11.12C111.768 11.12 113.028 9.93 113.028 8.3C113.028 6.67 111.778 5.49 110.198 5.49C108.608 5.49 107.368 6.67 107.368 8.3C107.368 9.93 108.618 11.12 110.198 11.12ZM110.198 10.01C109.278 10.01 108.618 9.3 108.618 8.31C108.618 7.32 109.278 6.6 110.198 6.6C111.108 6.6 111.778 7.32 111.778 8.31C111.778 9.3 111.108 10.01 110.198 10.01Z" fill="#999999"/>
<path d="M127.966 11.12C129.536 11.12 130.696 10.22 131.076 9.18L129.956 8.64C129.646 9.43 128.936 9.98 127.966 9.98C126.516 9.98 125.516 8.88 125.516 7.27C125.516 5.67 126.516 4.57 127.966 4.57C128.936 4.57 129.646 5.12 129.956 5.91L131.076 5.37C130.696 4.33 129.536 3.43 127.966 3.43C125.826 3.43 124.256 5.05 124.256 7.27C124.256 9.49 125.836 11.12 127.966 11.12ZM134.465 11.12C136.035 11.12 137.295 9.93 137.295 8.3C137.295 6.67 136.045 5.49 134.465 5.49C132.875 5.49 131.635 6.67 131.635 8.3C131.635 9.93 132.885 11.12 134.465 11.12ZM134.465 10.01C133.545 10.01 132.885 9.3 132.885 8.31C132.885 7.32 133.545 6.6 134.465 6.6C135.375 6.6 136.045 7.32 136.045 8.31C136.045 9.3 135.375 10.01 134.465 10.01ZM140.479 11.06C140.669 11.06 140.909 11.04 141.099 11.01V10.05C140.969 10.07 140.839 10.08 140.739 10.08C139.979 10.08 139.789 9.65 139.789 9.19V6.69H141.069V5.61H139.789V3.94H138.589V4.8C138.589 5.32 138.289 5.61 137.769 5.61H137.609V6.69H138.589V9.19C138.589 10.38 139.269 11.06 140.479 11.06ZM144.125 5.49C143.055 5.49 142.155 6.06 141.845 6.88L142.885 7.4C143.085 6.89 143.545 6.57 144.125 6.57C144.725 6.57 145.135 6.9 145.135 7.4V7.57L143.365 7.95C142.275 8.19 141.645 8.72 141.645 9.52C141.645 10.44 142.405 11.12 143.605 11.12C144.255 11.12 144.805 10.88 145.205 10.4V11H146.335V7.4C146.335 6.28 145.435 5.49 144.125 5.49ZM143.745 10.17C143.225 10.17 142.895 9.92 142.895 9.51C142.895 9.18 143.155 8.92 143.605 8.82L145.135 8.48V8.83C145.135 9.59 144.545 10.17 143.745 10.17ZM149.957 5.49C149.287 5.49 148.727 5.76 148.427 6.26V5.61H147.297V11H148.497V7.8C148.497 7.07 148.957 6.6 149.647 6.6C150.327 6.6 150.787 7.07 150.787 7.8V11H151.987V7.5C151.987 6.32 151.157 5.49 149.957 5.49ZM157.189 3.55V6.21C156.809 5.75 156.189 5.49 155.469 5.49C153.949 5.49 152.749 6.71 152.749 8.31C152.749 9.9 153.929 11.12 155.479 11.12C156.199 11.12 156.849 10.85 157.249 10.37V11H158.389V3.55H157.189ZM155.599 10.01C154.669 10.01 153.999 9.3 153.999 8.31C153.999 7.32 154.669 6.6 155.599 6.6C156.519 6.6 157.189 7.32 157.189 8.31C157.189 9.31 156.519 10.01 155.599 10.01ZM162.073 11.12C163.643 11.12 164.903 9.93 164.903 8.3C164.903 6.67 163.653 5.49 162.073 5.49C160.483 5.49 159.243 6.67 159.243 8.3C159.243 9.93 160.493 11.12 162.073 11.12ZM162.073 10.01C161.153 10.01 160.493 9.3 160.493 8.31C160.493 7.32 161.153 6.6 162.073 6.6C162.983 6.6 163.653 7.32 163.653 8.31C163.653 9.3 162.983 10.01 162.073 10.01Z" fill="#999999"/>
<path d="M186.772 11.12C188.342 11.12 189.502 10.22 189.882 9.18L188.762 8.64C188.452 9.43 187.742 9.98 186.772 9.98C185.322 9.98 184.322 8.88 184.322 7.27C184.322 5.67 185.322 4.57 186.772 4.57C187.742 4.57 188.452 5.12 188.762 5.91L189.882 5.37C189.502 4.33 188.342 3.43 186.772 3.43C184.632 3.43 183.062 5.05 183.062 7.27C183.062 9.49 184.642 11.12 186.772 11.12ZM193.271 11.12C194.841 11.12 196.101 9.93 196.101 8.3C196.101 6.67 194.851 5.49 193.271 5.49C191.681 5.49 190.441 6.67 190.441 8.3C190.441 9.93 191.691 11.12 193.271 11.12ZM193.271 10.01C192.351 10.01 191.691 9.3 191.691 8.31C191.691 7.32 192.351 6.6 193.271 6.6C194.181 6.6 194.851 7.32 194.851 8.31C194.851 9.3 194.181 10.01 193.271 10.01ZM199.284 11.06C199.474 11.06 199.714 11.04 199.904 11.01V10.05C199.774 10.07 199.644 10.08 199.544 10.08C198.784 10.08 198.594 9.65 198.594 9.19V6.69H199.874V5.61H198.594V3.94H197.394V4.8C197.394 5.32 197.094 5.61 196.574 5.61H196.414V6.69H197.394V9.19C197.394 10.38 198.074 11.06 199.284 11.06ZM202.931 5.49C201.861 5.49 200.961 6.06 200.651 6.88L201.691 7.4C201.891 6.89 202.351 6.57 202.931 6.57C203.531 6.57 203.941 6.9 203.941 7.4V7.57L202.171 7.95C201.081 8.19 200.451 8.72 200.451 9.52C200.451 10.44 201.211 11.12 202.411 11.12C203.061 11.12 203.611 10.88 204.011 10.4V11H205.141V7.4C205.141 6.28 204.241 5.49 202.931 5.49ZM202.551 10.17C202.031 10.17 201.701 9.92 201.701 9.51C201.701 9.18 201.961 8.92 202.411 8.82L203.941 8.48V8.83C203.941 9.59 203.351 10.17 202.551 10.17ZM210.242 3.55V6.21C209.862 5.75 209.242 5.49 208.522 5.49C207.002 5.49 205.802 6.71 205.802 8.31C205.802 9.9 206.982 11.12 208.532 11.12C209.252 11.12 209.902 10.85 210.302 10.37V11H211.442V3.55H210.242ZM208.652 10.01C207.722 10.01 207.052 9.3 207.052 8.31C207.052 7.32 207.722 6.6 208.652 6.6C209.572 6.6 210.242 7.32 210.242 8.31C210.242 9.31 209.572 10.01 208.652 10.01ZM214.777 5.49C213.707 5.49 212.807 6.06 212.497 6.88L213.537 7.4C213.737 6.89 214.197 6.57 214.777 6.57C215.377 6.57 215.787 6.9 215.787 7.4V7.57L214.017 7.95C212.927 8.19 212.297 8.72 212.297 9.52C212.297 10.44 213.057 11.12 214.257 11.12C214.907 11.12 215.457 10.88 215.857 10.4V11H216.987V7.4C216.987 6.28 216.087 5.49 214.777 5.49ZM214.397 10.17C213.877 10.17 213.547 9.92 213.547 9.51C213.547 9.18 213.807 8.92 214.257 8.82L215.787 8.48V8.83C215.787 9.59 215.197 10.17 214.397 10.17Z" fill="#999999"/>
<path d="M232.241 11H233.501V7.94H236.841V6.84H233.501V4.66H237.221V3.55H232.241V11ZM238.038 4.9H239.238V3.55H238.038V4.9ZM238.038 11H239.238V5.61H238.038V11ZM243.013 5.49C242.343 5.49 241.783 5.76 241.483 6.26V5.61H240.353V11H241.553V7.8C241.553 7.07 242.013 6.6 242.703 6.6C243.383 6.6 243.843 7.07 243.843 7.8V11H245.043V7.5C245.043 6.32 244.213 5.49 243.013 5.49ZM248.285 5.49C247.215 5.49 246.315 6.06 246.005 6.88L247.045 7.4C247.245 6.89 247.705 6.57 248.285 6.57C248.885 6.57 249.295 6.9 249.295 7.4V7.57L247.525 7.95C246.435 8.19 245.805 8.72 245.805 9.52C245.805 10.44 246.565 11.12 247.765 11.12C248.415 11.12 248.965 10.88 249.365 10.4V11H250.495V7.4C250.495 6.28 249.595 5.49 248.285 5.49ZM247.905 10.17C247.385 10.17 247.055 9.92 247.055 9.51C247.055 9.18 247.315 8.92 247.765 8.82L249.295 8.48V8.83C249.295 9.59 248.705 10.17 247.905 10.17ZM251.457 11H252.657V3.55H251.457V11ZM253.77 4.9H254.97V3.55H253.77V4.9ZM253.77 11H254.97V5.61H253.77V11ZM255.666 11H260.086V9.92H257.286L260.076 6.59V5.61H255.796V6.69H258.496L255.666 10.02V11ZM263.002 5.49C261.932 5.49 261.032 6.06 260.722 6.88L261.762 7.4C261.962 6.89 262.422 6.57 263.002 6.57C263.602 6.57 264.012 6.9 264.012 7.4V7.57L262.242 7.95C261.152 8.19 260.522 8.72 260.522 9.52C260.522 10.44 261.282 11.12 262.482 11.12C263.132 11.12 263.682 10.88 264.082 10.4V11H265.212V7.4C265.212 6.28 264.312 5.49 263.002 5.49ZM262.622 10.17C262.102 10.17 261.772 9.92 261.772 9.51C261.772 9.18 262.032 8.92 262.482 8.82L264.012 8.48V8.83C264.012 9.59 263.422 10.17 262.622 10.17ZM270.314 3.55V6.21C269.934 5.75 269.314 5.49 268.594 5.49C267.074 5.49 265.874 6.71 265.874 8.31C265.874 9.9 267.054 11.12 268.604 11.12C269.324 11.12 269.974 10.85 270.374 10.37V11H271.514V3.55H270.314ZM268.724 10.01C267.794 10.01 267.124 9.3 267.124 8.31C267.124 7.32 267.794 6.6 268.724 6.6C269.644 6.6 270.314 7.32 270.314 8.31C270.314 9.31 269.644 10.01 268.724 10.01ZM274.848 5.49C273.778 5.49 272.878 6.06 272.568 6.88L273.608 7.4C273.808 6.89 274.268 6.57 274.848 6.57C275.448 6.57 275.858 6.9 275.858 7.4V7.57L274.088 7.95C272.998 8.19 272.368 8.72 272.368 9.52C272.368 10.44 273.128 11.12 274.328 11.12C274.978 11.12 275.528 10.88 275.928 10.4V11H277.058V7.4C277.058 6.28 276.158 5.49 274.848 5.49ZM274.468 10.17C273.948 10.17 273.618 9.92 273.618 9.51C273.618 9.18 273.878 8.92 274.328 8.82L275.858 8.48V8.83C275.858 9.59 275.268 10.17 274.468 10.17Z" fill="black"/>
<line x1="23.25" y1="33.25" x2="254.75" y2="33.25" stroke="#2ED573" stroke-width="1.5" stroke-linecap="round" stroke-linejoin="round"/>
<circle cx="145.5" cy="34" r="8" fill="#E3E1E7"/>
<circle cx="145.5" cy="34" r="3" fill="white"/>
<circle cx="22.5" cy="34" r="10" fill="#2ED573"/>
<path fill-rule="evenodd" clip-rule="evenodd" d="M25.9801 31.4239C26.2984 31.689 26.3413 32.1619 26.0762 32.4802L22.3262 36.9802C22.1962 37.1362 22.0085 37.2328 21.806 37.2479C21.6035 37.2631 21.4035 37.1955 21.2517 37.0606L19.0017 35.0606C18.6921 34.7854 18.6643 34.3113 18.9395 34.0017C19.2146 33.6922 19.6887 33.6643 19.9983 33.9395L21.6695 35.425L24.9238 31.5199C25.189 31.2017 25.6619 31.1587 25.9801 31.4239Z" fill="white"/>
<circle cx="85.5" cy="34" r="10" fill="#2ED573"/>
<path fill-rule="evenodd" clip-rule="evenodd" d="M88.9801 31.4239C89.2984 31.689 89.3413 32.1619 89.0762 32.4802L85.3262 36.9802C85.1962 37.1362 85.0085 37.2328 84.806 37.2479C84.6035 37.2631 84.4035 37.1955 84.2517 37.0606L82.0017 35.0606C81.6921 34.7854 81.6643 34.3113 81.9395 34.0017C82.2146 33.6922 82.6887 33.6643 82.9983 33.9395L84.6695 35.425L87.9238 31.5199C88.189 31.2017 88.6619 31.1587 88.9801 31.4239Z" fill="white"/>
<circle cx="143.5" cy="34" r="10" fill="#2ED573"/>
<path fill-rule="evenodd" clip-rule="evenodd" d="M146.98 31.4239C147.298 31.689 147.341 32.1619 147.076 32.4802L143.326 36.9802C143.196 37.1362 143.008 37.2328 142.806 37.2479C142.603 37.2631 142.404 37.1955 142.252 37.0606L140.002 35.0606C139.692 34.7854 139.664 34.3113 139.939 34.0017C140.215 33.6922 140.689 33.6643 140.998 33.9395L142.67 35.425L145.924 31.5199C146.189 31.2017 146.662 31.1587 146.98 31.4239Z" fill="white"/>
<circle cx="201.5" cy="34" r="10" fill="#2ED573"/>
<path fill-rule="evenodd" clip-rule="evenodd" d="M204.98 31.4239C205.298 31.689 205.341 32.1619 205.076 32.4802L201.326 36.9802C201.196 37.1362 201.008 37.2328 200.806 37.2479C200.603 37.2631 200.404 37.1955 200.252 37.0606L198.002 35.0606C197.692 34.7854 197.664 34.3113 197.939 34.0017C198.215 33.6922 198.689 33.6643 198.998 33.9395L200.67 35.425L203.924 31.5199C204.189 31.2017 204.662 31.1587 204.98 31.4239Z" fill="white"/>
<circle cx="259.5" cy="34" r="10" fill="#2ED573"/>
<path fill-rule="evenodd" clip-rule="evenodd" d="M262.98 31.4239C263.298 31.689 263.341 32.1619 263.076 32.4802L259.326 36.9802C259.196 37.1362 259.008 37.2328 258.806 37.2479C258.603 37.2631 258.404 37.1955 258.252 37.0606L256.002 35.0606C255.692 34.7854 255.664 34.3113 255.939 34.0017C256.215 33.6922 256.689 33.6643 256.998 33.9395L258.67 35.425L261.924 31.5199C262.189 31.2017 262.662 31.1587 262.98 31.4239Z" fill="white"/>
</svg>
