<svg width="20" height="20" viewBox="0 0 20 20" fill="none" xmlns="http://www.w3.org/2000/svg">
<path d="M2.6009 4.16663H17.2676" stroke="black" stroke-width="1.5" stroke-miterlimit="10" stroke-linecap="round"/>
<path d="M2.6009 15.5006H17.2676" stroke="black" stroke-width="1.5" stroke-miterlimit="10" stroke-linecap="round"/>
<path d="M5.53201 10.8692C5.53201 11.2892 5.38067 11.6198 5.07867 11.8618C4.77601 12.1038 4.35601 12.2245 3.81667 12.2245C3.32001 12.2245 2.88134 12.1312 2.49934 11.9445V11.0278C2.92867 11.2192 3.42334 11.4098 3.89334 11.4098C4.26134 11.4098 4.56467 11.2878 4.56467 10.9165C4.56467 10.7132 4.43201 10.5798 4.26401 10.4678C3.87534 10.2085 3.39267 10.0892 3.02134 9.76785C2.35267 9.18852 2.44667 8.23852 2.97201 7.79518C3.44601 7.39518 4.23867 7.37585 4.82067 7.52785C5.04001 7.58518 5.27001 7.66585 5.50934 7.76985L5.19134 8.53652C4.99116 8.45131 4.78534 8.38003 4.57534 8.32318C4.29934 8.25452 3.88067 8.20652 3.66734 8.39318C3.46801 8.56652 3.42801 8.91385 3.77067 9.14918C3.85867 9.20985 4.06667 9.31852 4.39601 9.47518C4.83067 9.68318 5.12867 9.89185 5.29001 10.1005C5.45134 10.3092 5.53201 10.5658 5.53201 10.8692Z" fill="black"/>
<path d="M9.63189 12.1622L9.29456 11.0548H7.59923L7.26189 12.1622H6.19856L7.84056 7.49084H9.04723L10.6959 12.1622H9.63189ZM9.05989 10.2268C8.97923 9.96684 8.50523 8.46618 8.44856 8.21284C8.37856 8.48418 8.17789 9.15618 7.84723 10.2268H9.05989Z" fill="black"/>
<path d="M11.3626 12.1611V7.50842H12.3486V11.3464H14.236V12.1611H11.3626Z" fill="black"/>
<path d="M17.581 12.1611H14.9017V7.50842H17.581V8.31642H15.8877V9.33842H17.463V10.1464H15.8877V11.3458H17.581V12.1611Z" fill="black"/>
</svg>
