<svg width="24" height="24" viewBox="0 0 24 24" fill="none" xmlns="http://www.w3.org/2000/svg">
<path d="M5.55947 12.3221C4.35914 12.9623 3.71897 14.4027 4.11908 15.9231C4.43917 17.0434 5.39942 17.9236 6.51972 18.1637C6.67977 18.1637 6.83981 18.2437 6.99985 18.2437C7.80007 18.2437 8.44024 17.4435 8.28019 16.6433L7.47998 13.1223C7.23992 12.2421 6.27966 11.842 5.55947 12.3221Z" stroke="black" stroke-width="1.5" stroke-linecap="round" stroke-linejoin="round"/>
<path d="M18.4429 12.3221C19.6432 12.9623 20.2834 14.4027 19.8833 15.9231C19.5632 17.0434 18.603 17.9236 17.4827 18.1637C17.3226 18.1637 17.1626 18.2437 17.0025 18.2437C16.2023 18.2437 15.5622 17.4435 15.7222 16.6433L16.5224 13.1223C16.7625 12.2421 17.7227 11.842 18.4429 12.3221Z" stroke="black" stroke-width="1.5" stroke-linecap="round" stroke-linejoin="round"/>
<path d="M18.763 12.5623V10.8018C18.763 7.04081 15.7222 4 11.9612 4C8.20016 4 5.15935 7.04081 5.15935 10.8018V12.4823" stroke="black" stroke-width="1.5" stroke-linecap="round" stroke-linejoin="round"/>
<path d="M11.5611 20.6443C13.7216 20.6443 15.242 21.1244 16.7624 18.2437" stroke="black" stroke-width="1.5" stroke-miterlimit="10" stroke-linecap="round" stroke-linejoin="round"/>
</svg>
